<?xml version="1.0" encoding="UTF-8" standalone="no"?>
<!DOCTYPE svg PUBLIC "-//W3C//DTD SVG 1.1//EN"
 "http://www.w3.org/Graphics/SVG/1.1/DTD/svg11.dtd">
<!-- Generated by graphviz version 2.43.0 (0)
 -->
<!-- Title: application_state_diagram Pages: 1 -->
<svg width="413pt" height="279pt"
 viewBox="0.00 0.00 413.48 279.00" xmlns="http://www.w3.org/2000/svg" xmlns:xlink="http://www.w3.org/1999/xlink">
<g id="graph0" class="graph" transform="scale(1 1) rotate(0) translate(4 275)">
<title>application_state_diagram</title>
<g id="a_graph0"><a xlink:href="index.html" xlink:title="Company API for BigCo, Inc." target="_parent">
<polygon fill="white" stroke="transparent" points="-4,4 -4,-275 409.48,-275 409.48,4 -4,4"/>
<text text-anchor="middle" x="202.74" y="-255.8" font-family="Helvetica,sans-Serif" font-size="14.00">Company API for BigCo, Inc.</text>
</a>
</g>
<!-- item -->
<g id="node1" class="node">
<title>item</title>
<g id="a_node1"><a xlink:href="docs/semantic.item.html" xlink:title="&lt;TABLE&gt;" target="_parent">
<polygon fill="lightgray" stroke="black" stroke-width="2" points="232.48,-248 145.48,-248 145.48,-206 232.48,-206 232.48,-248"/>
<text text-anchor="start" x="172.98" y="-230.8" font-family="Times,serif" font-size="14.00">item</text>
<text text-anchor="start" x="151.98" y="-215.8" font-family="Times,serif" font-size="14.00">(company)</text>
</a>
</g>
</g>
<!-- item&#45;&gt;item -->
<g id="edge3" class="edge">
<title>item&#45;&gt;item</title>
<g id="a_edge3"><a xlink:href="docs/idempotent.do-update.html" xlink:title="do&#45;update (idempotent)" target="_parent">
<path fill="none" stroke="black" d="M232.65,-238.03C242.91,-237.12 250.48,-233.45 250.48,-227 250.48,-222.87 247.37,-219.88 242.44,-218.02"/>
<polygon fill="black" stroke="black" points="243.15,-214.6 232.65,-215.97 241.72,-221.45 243.15,-214.6"/>
</a>
</g>
<g id="a_edge3&#45;label"><a xlink:href="docs/idempotent.do-update.html" xlink:title="do&#45;update (idempotent)" target="_parent">
<text text-anchor="start" x="250.48" y="-223.6" font-family="Times,serif" font-size="13.00">do&#45;update (idempotent)</text>
</a>
</g>
</g>
<!-- list -->
<g id="node2" class="node">
<title>list</title>
<g id="a_node2"><a xlink:href="docs/semantic.list.html" xlink:title="&lt;TABLE&gt;" target="_parent">
<polygon fill="lightgray" stroke="black" stroke-width="2" points="112.48,-128 25.48,-128 25.48,-86 112.48,-86 112.48,-128"/>
<text text-anchor="start" x="57.98" y="-110.8" font-family="Times,serif" font-size="14.00">list</text>
<text text-anchor="start" x="31.98" y="-95.8" font-family="Times,serif" font-size="14.00">(company)</text>
</a>
</g>
</g>
<!-- item&#45;&gt;list -->
<g id="edge4" class="edge">
<title>item&#45;&gt;list</title>
<path fill="none" stroke="black" d="M145.12,-223C97.18,-218.7 24.93,-208.88 7.98,-188 -3.79,-173.51 -1.08,-162.32 7.98,-146 10.49,-141.48 13.78,-137.43 17.55,-133.81"/>
<polygon fill="black" stroke="black" points="19.82,-136.47 25.27,-127.38 15.34,-131.09 19.82,-136.47"/>
<g id="a_edge4_0"><a xlink:href="docs/idempotent.do-delete.html" xlink:title="&lt;TABLE&gt;">
<text text-anchor="start" x="12.48" y="-173.6" font-family="Times,serif" font-size="13.00">do&#45;delete (idempotent)</text>
</a>
</g>
<g id="a_edge4_1"><a xlink:href="docs/safe.go-list.html" xlink:title="&lt;TABLE&gt;">
<text text-anchor="start" x="12.48" y="-153.6" font-family="Times,serif" font-size="13.00">go&#45;list (safe)</text>
</a>
</g>
</g>
<!-- home -->
<g id="node3" class="node">
<title>home</title>
<g id="a_node3"><a xlink:href="docs/semantic.home.html" xlink:title="home" target="_parent">
<polygon fill="lightgray" stroke="black" stroke-width="2" points="216.98,-36 160.98,-36 160.98,0 216.98,0 216.98,-36"/>
<text text-anchor="middle" x="188.98" y="-14.3" font-family="Times,serif" font-size="14.00">home</text>
</a>
</g>
</g>
<!-- item&#45;&gt;home -->
<g id="edge2" class="edge">
<title>item&#45;&gt;home</title>
<g id="a_edge2"><a xlink:href="docs/safe.go-home.html" xlink:title="go&#45;home (safe)" target="_parent">
<path fill="none" stroke="black" d="M232.86,-218.87C250.92,-213.54 270.12,-204.23 280.98,-188 298.3,-162.11 278.95,-72.16 264.98,-54 255.55,-41.74 240.83,-33.63 226.84,-28.33"/>
<polygon fill="black" stroke="black" points="227.94,-25.01 217.34,-25.1 225.68,-31.64 227.94,-25.01"/>
</a>
</g>
<g id="a_edge2&#45;label"><a xlink:href="docs/safe.go-home.html" xlink:title="go&#45;home (safe)" target="_parent">
<text text-anchor="start" x="286.98" y="-103.6" font-family="Times,serif" font-size="13.00">go&#45;home (safe)</text>
</a>
</g>
</g>
<!-- list&#45;&gt;item -->
<g id="edge6" class="edge">
<title>list&#45;&gt;item</title>
<g id="a_edge6"><a xlink:href="docs/safe.go-read.html" xlink:title="go&#45;read (safe)" target="_parent">
<path fill="none" stroke="black" d="M112.62,-115.71C131.71,-121.18 152.91,-130.43 166.98,-146 179.18,-159.5 184.69,-179.16 187.15,-195.61"/>
<polygon fill="black" stroke="black" points="183.71,-196.34 188.37,-205.86 190.67,-195.52 183.71,-196.34"/>
</a>
</g>
<g id="a_edge6&#45;label"><a xlink:href="docs/safe.go-read.html" xlink:title="go&#45;read (safe)" target="_parent">
<text text-anchor="start" x="185.98" y="-163.6" font-family="Times,serif" font-size="13.00">go&#45;read (safe)</text>
</a>
</g>
</g>
<!-- list&#45;&gt;list -->
<g id="edge7" class="edge">
<title>list&#45;&gt;list</title>
<path fill="none" stroke="black" d="M112.65,-115.45C122.91,-114.76 130.48,-111.94 130.48,-107 130.48,-103.91 127.52,-101.65 122.8,-100.22"/>
<polygon fill="black" stroke="black" points="123.09,-96.72 112.65,-98.55 121.94,-103.63 123.09,-96.72"/>
<g id="a_edge7_2"><a xlink:href="docs/unsafe.do-create.html" xlink:title="&lt;TABLE&gt;">
<text text-anchor="start" x="134.48" y="-113.6" font-family="Times,serif" font-size="13.00">do&#45;create (unsafe)</text>
</a>
</g>
<g id="a_edge7_3"><a xlink:href="docs/safe.go-filter.html" xlink:title="&lt;TABLE&gt;">
<text text-anchor="start" x="134.48" y="-93.6" font-family="Times,serif" font-size="13.00">go&#45;filter (safe)</text>
</a>
</g>
</g>
<!-- list&#45;&gt;home -->
<g id="edge5" class="edge">
<title>list&#45;&gt;home</title>
<g id="a_edge5"><a xlink:href="docs/safe.go-home.html" xlink:title="go&#45;home (safe)" target="_parent">
<path fill="none" stroke="black" d="M62.02,-85.92C59.71,-75.43 59.22,-62.95 65.98,-54 76.27,-40.37 118.62,-30.48 150.77,-24.76"/>
<polygon fill="black" stroke="black" points="151.53,-28.18 160.8,-23.05 150.35,-21.28 151.53,-28.18"/>
</a>
</g>
<g id="a_edge5&#45;label"><a xlink:href="docs/safe.go-home.html" xlink:title="go&#45;home (safe)" target="_parent">
<text text-anchor="start" x="65.98" y="-57.6" font-family="Times,serif" font-size="13.00">go&#45;home (safe)</text>
</a>
</g>
</g>
<!-- home&#45;&gt;list -->
<g id="edge1" class="edge">
<title>home&#45;&gt;list</title>
<g id="a_edge1"><a xlink:href="docs/safe.go-list.html" xlink:title="go&#45;list (safe)" target="_parent">
<path fill="none" stroke="black" d="M184.78,-36.39C181.48,-46.76 175.91,-59.53 166.98,-68 154.59,-79.76 138.17,-88 122.31,-93.72"/>
<polygon fill="black" stroke="black" points="120.94,-90.49 112.55,-96.96 123.15,-97.13 120.94,-90.49"/>
</a>
</g>
<g id="a_edge1&#45;label"><a xlink:href="docs/safe.go-list.html" xlink:title="go&#45;list (safe)" target="_parent">
<text text-anchor="start" x="177.98" y="-57.6" font-family="Times,serif" font-size="13.00">go&#45;list (safe)</text>
</a>
</g>
</g>
</g>
</svg>
