<?xml version="1.0" encoding="UTF-8" standalone="no"?>
<!DOCTYPE svg PUBLIC "-//W3C//DTD SVG 1.1//EN"
 "http://www.w3.org/Graphics/SVG/1.1/DTD/svg11.dtd">
<!-- Generated by graphviz version 2.40.1 (20161225.0304)
 -->
<!-- Title: application_state_diagram Pages: 1 -->
<svg width="422pt" height="279pt"
 viewBox="0.00 0.00 422.00 279.00" xmlns="http://www.w3.org/2000/svg" xmlns:xlink="http://www.w3.org/1999/xlink">
<g id="graph0" class="graph" transform="scale(1 1) rotate(0) translate(4 275)">
<title>application_state_diagram</title>
<g id="a_graph0"><a xlink:href="index.html" xlink:title="Company API for BigCo, Inc." target="_parent">
<polygon fill="#ffffff" stroke="transparent" points="-4,4 -4,-275 418,-275 418,4 -4,4"/>
<text text-anchor="middle" x="207" y="-255.8" font-family="Helvetica,sans-Serif" font-size="14.00" fill="#000000">Company API for BigCo, Inc.</text>
</a>
</g>
<!-- list -->
<g id="node1" class="node">
<title>list</title>
<g id="a_node1"><a xlink:href="docs/semantic.list.html" xlink:title="&lt;TABLE&gt;" target="_parent">
<polygon fill="#d3d3d3" stroke="#000000" stroke-width="2" points="216,-248 144,-248 144,-206 216,-206 216,-248"/>
<text text-anchor="start" x="171.5" y="-230.8" font-family="Times,serif" font-size="14.00" fill="#000000">list</text>
<text text-anchor="start" x="150" y="-215.8" font-family="Times,serif" font-size="14.00" fill="#000000">(company)</text>
</a>
</g>
</g>
<!-- list&#45;&gt;list -->
<g id="edge2" class="edge">
<title>list&#45;&gt;list</title>
<path fill="none" stroke="#000000" d="M216.0873,-238.1944C226.2211,-237.7041 234,-233.9727 234,-227 234,-222.6421 230.9614,-219.5503 226.2083,-217.7245"/>
<polygon fill="#000000" stroke="#000000" points="226.5643,-214.2298 216.0873,-215.8056 225.2603,-221.1072 226.5643,-214.2298"/>
<g id="a_edge2_0"><a xlink:href="docs/safe.go-filter.html" xlink:title="&lt;TABLE&gt;">
<text text-anchor="start" x="238" y="-233.6" font-family="Times,serif" font-size="13.00" fill="#000000">go&#45;filter (safe)</text>
</a>
</g>
<g id="a_edge2_1"><a xlink:href="docs/unsafe.do-create.html" xlink:title="&lt;TABLE&gt;">
<text text-anchor="start" x="238" y="-213.6" font-family="Times,serif" font-size="13.00" fill="#000000">do&#45;create (unsafe)</text>
</a>
</g>
</g>
<!-- item -->
<g id="node2" class="node">
<title>item</title>
<g id="a_node2"><a xlink:href="docs/semantic.item.html" xlink:title="&lt;TABLE&gt;" target="_parent">
<polygon fill="#d3d3d3" stroke="#000000" stroke-width="2" points="72,-128 0,-128 0,-86 72,-86 72,-128"/>
<text text-anchor="start" x="23.5" y="-110.8" font-family="Times,serif" font-size="14.00" fill="#000000">item</text>
<text text-anchor="start" x="6" y="-95.8" font-family="Times,serif" font-size="14.00" fill="#000000">(company)</text>
</a>
</g>
</g>
<!-- list&#45;&gt;item -->
<g id="edge3" class="edge">
<title>list&#45;&gt;item</title>
<g id="a_edge3"><a xlink:href="docs/safe.go-read.html" xlink:title="go&#45;read (safe)" target="_parent">
<path fill="none" stroke="#000000" d="M143.6902,-223.9339C98.5801,-219.2846 25.5188,-208.7104 9,-188 -2.6982,-173.3333 3.7696,-153.3709 13.3007,-136.9338"/>
<polygon fill="#000000" stroke="#000000" points="16.4247,-138.5424 18.815,-128.2207 10.5097,-134.7989 16.4247,-138.5424"/>
</a>
</g>
<g id="a_edge3&#45;label"><a xlink:href="docs/safe.go-read.html" xlink:title="go&#45;read (safe)" target="_parent">
<text text-anchor="middle" x="47" y="-163.6" font-family="Times,serif" font-size="13.00" fill="#000000">go&#45;read (safe)</text>
</a>
</g>
</g>
<!-- home -->
<g id="node3" class="node">
<title>home</title>
<g id="a_node3"><a xlink:href="docs/semantic.home.html" xlink:title="home" target="_parent">
<polygon fill="#d3d3d3" stroke="#000000" stroke-width="2" points="280,-36 226,-36 226,0 280,0 280,-36"/>
<text text-anchor="middle" x="253" y="-14.3" font-family="Times,serif" font-size="14.00" fill="#000000">home</text>
</a>
</g>
</g>
<!-- list&#45;&gt;home -->
<g id="edge4" class="edge">
<title>list&#45;&gt;home</title>
<g id="a_edge4"><a xlink:href="docs/safe.go-home.html" xlink:title="go&#45;home (safe)" target="_parent">
<path fill="none" stroke="#000000" d="M216.0752,-210.4701C225.0018,-204.6416 233.5588,-197.1928 239,-188 246.0347,-176.1151 250.251,-91.2826 252.0211,-46.1258"/>
<polygon fill="#000000" stroke="#000000" points="255.5201,-46.2133 252.3998,-36.0884 248.5251,-45.9493 255.5201,-46.2133"/>
</a>
</g>
<g id="a_edge4&#45;label"><a xlink:href="docs/safe.go-home.html" xlink:title="go&#45;home (safe)" target="_parent">
<text text-anchor="middle" x="291" y="-103.6" font-family="Times,serif" font-size="13.00" fill="#000000">go&#45;home (safe)</text>
</a>
</g>
</g>
<!-- item&#45;&gt;list -->
<g id="edge6" class="edge">
<title>item&#45;&gt;list</title>
<path fill="none" stroke="#000000" d="M66.4593,-128.1442C73.0268,-133.5156 79.6081,-139.5957 85,-146 98.7069,-162.2806 92.9166,-172.9857 108,-188 115.791,-195.7553 125.4447,-202.3839 135.1249,-207.8588"/>
<polygon fill="#000000" stroke="#000000" points="133.497,-210.9572 143.9697,-212.5617 136.7834,-204.7766 133.497,-210.9572"/>
<g id="a_edge6_2"><a xlink:href="docs/idempotent.do-delete.html" xlink:title="&lt;TABLE&gt;">
<text text-anchor="start" x="112.5" y="-173.6" font-family="Times,serif" font-size="13.00" fill="#000000">do&#45;delete (idempotent)</text>
</a>
</g>
<g id="a_edge6_3"><a xlink:href="docs/safe.go-list.html" xlink:title="&lt;TABLE&gt;">
<text text-anchor="start" x="112.5" y="-153.6" font-family="Times,serif" font-size="13.00" fill="#000000">go&#45;list (safe)</text>
</a>
</g>
</g>
<!-- item&#45;&gt;item -->
<g id="edge5" class="edge">
<title>item&#45;&gt;item</title>
<g id="a_edge5"><a xlink:href="docs/idempotent.do-update.html" xlink:title="do&#45;update (idempotent)" target="_parent">
<path fill="none" stroke="#000000" d="M72.0873,-115.5824C82.2211,-115.2065 90,-112.3457 90,-107 90,-103.6589 86.9614,-101.2885 82.2083,-99.8888"/>
<polygon fill="#000000" stroke="#000000" points="82.4868,-96.3926 72.0873,-98.4176 81.4798,-103.3198 82.4868,-96.3926"/>
</a>
</g>
<g id="a_edge5&#45;label"><a xlink:href="docs/idempotent.do-update.html" xlink:title="do&#45;update (idempotent)" target="_parent">
<text text-anchor="middle" x="153.5" y="-103.6" font-family="Times,serif" font-size="13.00" fill="#000000">do&#45;update (idempotent)</text>
</a>
</g>
</g>
<!-- item&#45;&gt;home -->
<g id="edge7" class="edge">
<title>item&#45;&gt;home</title>
<g id="a_edge7"><a xlink:href="docs/safe.go-home.html" xlink:title="go&#45;home (safe)" target="_parent">
<path fill="none" stroke="#000000" d="M72.0517,-90.5991C95.9971,-79.8569 128.2089,-65.6938 157,-54 176.4807,-46.0877 198.4234,-37.8123 216.4082,-31.1937"/>
<polygon fill="#000000" stroke="#000000" points="217.7645,-34.4244 225.9518,-27.6999 215.3581,-27.851 217.7645,-34.4244"/>
</a>
</g>
<g id="a_edge7&#45;label"><a xlink:href="docs/safe.go-home.html" xlink:title="go&#45;home (safe)" target="_parent">
<text text-anchor="middle" x="198" y="-57.6" font-family="Times,serif" font-size="13.00" fill="#000000">go&#45;home (safe)</text>
</a>
</g>
</g>
<!-- home&#45;&gt;list -->
<g id="edge1" class="edge">
<title>home&#45;&gt;list</title>
<g id="a_edge1"><a xlink:href="docs/safe.go-list.html" xlink:title="go&#45;list (safe)" target="_parent">
<path fill="none" stroke="#000000" d="M280.2821,-31.0211C300.6214,-42.3875 326.8905,-60.9875 339,-86 347.1341,-102.8012 346.9176,-111.0957 339,-128 317.8295,-173.1999 264.8861,-199.788 225.8812,-213.8336"/>
<polygon fill="#000000" stroke="#000000" points="224.6068,-210.5707 216.2928,-217.138 226.8875,-217.1887 224.6068,-210.5707"/>
</a>
</g>
<g id="a_edge1&#45;label"><a xlink:href="docs/safe.go-list.html" xlink:title="go&#45;list (safe)" target="_parent">
<text text-anchor="middle" x="379.5" y="-103.6" font-family="Times,serif" font-size="13.00" fill="#000000">go&#45;list (safe)</text>
</a>
</g>
</g>
</g>
</svg>
